<svg width="60" height="64" viewBox="0 0 60 64" fill="none" xmlns="http://www.w3.org/2000/svg">
<g opacity="0.3" filter="url(#filter0_f_165830_3652)">
<path d="M27 11.7321C28.8564 10.6603 31.1436 10.6603 33 11.7321L40.8564 16.268C42.7128 17.3398 43.8564 19.3205 43.8564 21.4641V30.5359C43.8564 32.6795 42.7128 34.6603 40.8564 35.7321L33 40.268C31.1436 41.3398 28.8564 41.3398 27 40.268L19.1436 35.7321C17.2872 34.6603 16.1436 32.6795 16.1436 30.5359V21.4641C16.1436 19.3205 17.2872 17.3398 19.1436 16.268L27 11.7321Z" fill="url(#paint0_linear_165830_3652)"/>
</g>
<g opacity="0.4" filter="url(#filter1_f_165830_3652)">
<path d="M27 16.7321C28.8564 15.6603 31.1436 15.6603 33 16.7321L41.7225 21.768C43.5789 22.8398 44.7225 24.8205 44.7225 26.9641V37.0359C44.7225 39.1795 43.5789 41.1603 41.7225 42.2321L33 47.268C31.1436 48.3398 28.8564 48.3398 27 47.268L18.2776 42.2321C16.4212 41.1603 15.2776 39.1795 15.2776 37.0359V26.9641C15.2776 24.8205 16.4212 22.8398 18.2776 21.768L27 16.7321Z" fill="url(#paint1_linear_165830_3652)"/>
</g>
<path d="M27 3.73207C28.8564 2.66027 31.1436 2.66027 33 3.73207L44.3205 10.268C46.1769 11.3398 47.3205 13.3205 47.3205 15.4641V28.5359C47.3205 30.6795 46.1769 32.6603 44.3205 33.7321L33 40.268C31.1436 41.3398 28.8564 41.3398 27 40.268L15.6795 33.7321C13.8231 32.6603 12.6795 30.6795 12.6795 28.5359V15.4641C12.6795 13.3205 13.8231 11.3398 15.6795 10.268L27 3.73207Z" fill="url(#paint2_linear_165830_3652)"/>
<path d="M24.3752 22.1734L30.1298 12.625V12.6295L30.1312 12.625L35.8849 22.1721L35.888 22.1735L30.1333 25.5751V25.5741L30.1312 25.5753L30.1298 25.574V25.5751L24.3752 22.1734Z" fill="#030303"/>
<path d="M30.1298 31.371V31.375L24.375 23.2655L30.1298 26.6654V26.6671L30.1312 26.6654L35.8894 23.2655L30.1312 31.375L30.1298 31.371Z" fill="#030303"/>
<defs>
<filter id="filter0_f_165830_3652" x="10.1436" y="4.92822" width="39.7128" height="42.1436" filterUnits="userSpaceOnUse" color-interpolation-filters="sRGB">
<feFlood flood-opacity="0" result="BackgroundImageFix"/>
<feBlend mode="normal" in="SourceGraphic" in2="BackgroundImageFix" result="shape"/>
<feGaussianBlur stdDeviation="3" result="effect1_foregroundBlur_165830_3652"/>
</filter>
<filter id="filter1_f_165830_3652" x="0.277588" y="0.928223" width="59.4449" height="62.1436" filterUnits="userSpaceOnUse" color-interpolation-filters="sRGB">
<feFlood flood-opacity="0" result="BackgroundImageFix"/>
<feBlend mode="normal" in="SourceGraphic" in2="BackgroundImageFix" result="shape"/>
<feGaussianBlur stdDeviation="7.5" result="effect1_foregroundBlur_165830_3652"/>
</filter>
<linearGradient id="paint0_linear_165830_3652" x1="8.45451" y1="-23.8739" x2="42.6763" y2="-19.5328" gradientUnits="userSpaceOnUse">
<stop stop-color="#FF8D8D"/>
<stop offset="1" stop-color="#F7FC0E"/>
</linearGradient>
<linearGradient id="paint1_linear_165830_3652" x1="7.10791" y1="-21.183" x2="43.4727" y2="-16.5867" gradientUnits="userSpaceOnUse">
<stop stop-color="#FF8D8D"/>
<stop offset="1" stop-color="#F7FC0E"/>
</linearGradient>
<linearGradient id="paint2_linear_165830_3652" x1="3.06812" y1="-41.1103" x2="45.8618" y2="-35.7479" gradientUnits="userSpaceOnUse">
<stop stop-color="#FF8D8D"/>
<stop offset="1" stop-color="#F7FC0E"/>
</linearGradient>
</defs>
</svg>
